# xmcd
#
# Track frame offsets:
#	150
#	14896
#	26490
#	38576
#	53857
#	66473
#	82870
#	92210
#	107800
#	133332
#	143331
#	156729
#
# Disc length: 2261 seconds
#
# Revision: 1
# Processed by: cddbd v1.5.2PL0 Copyright (c) Steve Scherf et al.
# Submitted via: audiograbber 1.83.01
#
DISCID=a708d30c
DTITLE=Joanne Post - With Family and Friends
DYEAR=2008
DGENRE=Country
TTITLE0=Train, Train
TTITLE1=Just Somebody I Used to Know
TTITLE2=I Wonder Where You Are Tonight (With John Beckett)
TTITLE3=Elusive Dreams (With Norm Post)
TTITLE4=Endless Stream of Tears
TTITLE5=I Was Country When Country Wasn't Cool (With Mike Keates)
TTITLE6=Before I Met You (With Norm Post)
TTITLE7=Roly Polly (With Ken Post)
TTITLE8=For the Good Times
TTITLE9=I Still Miss Someone (With John Beckett)
TTITLE10=I'm Gonna Sleep With One Eye Open
TTITLE11=Great Divide (With Norm Post)
EXTD=
EXTT0=
EXTT1=
EXTT2=
EXTT3=
EXTT4=
EXTT5=
EXTT6=
EXTT7=
EXTT8=
EXTT9=
EXTT10=
EXTT11=
PLAYORDER=
